<!DOCTYPE svg PUBLIC "-//W3C//DTD SVG 20010904//EN" "http://www.w3.org/TR/2001/REC-SVG-20010904/DTD/svg10.dtd">
<svg version="1.0" xmlns="http://www.w3.org/2000/svg" width="15px" height="26px" viewBox="0 0 150 260" preserveAspectRatio="xMidYMid meet">
<g id="layer101" fill="#ffffff" stroke="none">
 <path d="M40 205 c0 -48 -2 -55 -20 -55 -16 0 -20 -7 -20 -30 0 -23 4 -30 20 -30 14 0 20 -7 20 -23 0 -41 27 -67 71 -67 35 0 39 3 39 25 0 20 -5 25 -25 25 -18 0 -25 5 -25 20 0 15 7 20 25 20 21 0 25 5 25 30 0 25 -4 30 -25 30 -24 0 -25 3 -25 55 0 54 0 55 -30 55 -30 0 -30 -1 -30 -55z"/>
 </g>

</svg>