<!DOCTYPE svg PUBLIC "-//W3C//DTD SVG 20010904//EN" "http://www.w3.org/TR/2001/REC-SVG-20010904/DTD/svg10.dtd">
<svg version="1.0" xmlns="http://www.w3.org/2000/svg" width="21px" height="27px" viewBox="0 0 210 270" preserveAspectRatio="xMidYMid meet">
<g id="layer101" fill="#ffffff" stroke="none">
 <path d="M45 218 c4 -29 10 -75 14 -103 5 -45 9 -50 31 -50 27 0 30 14 17 68 -7 24 -5 27 17 27 27 0 36 -16 36 -64 0 -40 -15 -56 -55 -56 -47 0 -69 29 -61 80 5 30 3 40 -7 40 -23 0 -37 -23 -37 -61 0 -30 7 -43 35 -68 72 -63 175 -25 175 64 0 60 -39 107 -84 103 -27 -3 -33 1 -48 35 -26 56 -42 48 -33 -15z"/>
 </g>

</svg>