<!DOCTYPE svg PUBLIC "-//W3C//DTD SVG 20010904//EN" "http://www.w3.org/TR/2001/REC-SVG-20010904/DTD/svg10.dtd">
<svg version="1.0" xmlns="http://www.w3.org/2000/svg" width="26px" height="27px" viewBox="0 0 260 270" preserveAspectRatio="xMidYMid meet">
<g id="layer101" fill="#ffffff" stroke="none">
 <path d="M12 258 c-8 -8 -12 -49 -12 -118 0 -139 1 -140 136 -140 65 0 104 4 112 12 17 17 17 229 0 246 -16 16 -220 16 -236 0z m216 -80 c2 -36 -1 -58 -8 -58 -5 0 -10 11 -10 24 0 23 -49 76 -70 76 -41 0 -101 -64 -85 -90 3 -6 -1 -10 -9 -10 -13 0 -16 12 -16 53 0 30 3 57 7 61 4 4 48 5 98 4 l90 -3 3 -57z m-68 -12 c19 -23 8 -61 -18 -64 -45 -7 -72 46 -34 67 24 14 38 13 52 -3z m70 -106 c0 -13 -7 -20 -20 -20 -13 0 -20 7 -20 20 0 13 7 20 20 20 13 0 20 -7 20 -20z"/>
 </g>

</svg>